<mxfile host="Electron" agent="Mozilla/5.0 (Macintosh; Intel Mac OS X 10_15_7) AppleWebKit/537.36 (KHTML, like Gecko) draw.io/24.7.17 Chrome/128.0.6613.36 Electron/32.0.1 Safari/537.36" version="24.7.17">
  <diagram name="Page-1" id="1WE568LWMVHtuKM3JDja">
    <mxGraphModel dx="-642" dy="705" grid="1" gridSize="10" guides="1" tooltips="1" connect="1" arrows="1" fold="1" page="1" pageScale="1" pageWidth="827" pageHeight="1169" background="none" math="1" shadow="0">
      <root>
        <mxCell id="0" />
        <mxCell id="1" parent="0" />
        <mxCell id="pY1jZxHgJ3CI3KXNFTr0-70" value="" style="group" parent="1" vertex="1" connectable="0">
          <mxGeometry x="2020" y="180" width="70" height="80" as="geometry" />
        </mxCell>
        <mxCell id="pY1jZxHgJ3CI3KXNFTr0-71" value="" style="rounded=0;whiteSpace=wrap;html=1;fillColor=#f8cecc;strokeColor=#b85450;" parent="pY1jZxHgJ3CI3KXNFTr0-70" vertex="1">
          <mxGeometry width="10" height="80" as="geometry" />
        </mxCell>
        <mxCell id="pY1jZxHgJ3CI3KXNFTr0-72" value="" style="rounded=0;whiteSpace=wrap;html=1;fillColor=#f8cecc;strokeColor=#b85450;" parent="pY1jZxHgJ3CI3KXNFTr0-70" vertex="1">
          <mxGeometry x="10" y="10" width="10" height="60" as="geometry" />
        </mxCell>
        <mxCell id="pY1jZxHgJ3CI3KXNFTr0-73" value="" style="rounded=0;whiteSpace=wrap;html=1;fillColor=#f8cecc;strokeColor=#b85450;" parent="pY1jZxHgJ3CI3KXNFTr0-70" vertex="1">
          <mxGeometry x="20" y="20" width="10" height="40" as="geometry" />
        </mxCell>
        <mxCell id="pY1jZxHgJ3CI3KXNFTr0-74" value="" style="rounded=0;whiteSpace=wrap;html=1;fillColor=#f8cecc;strokeColor=#b85450;" parent="pY1jZxHgJ3CI3KXNFTr0-70" vertex="1">
          <mxGeometry x="30" y="30" width="10" height="20" as="geometry" />
        </mxCell>
        <mxCell id="pY1jZxHgJ3CI3KXNFTr0-75" value="" style="rounded=0;whiteSpace=wrap;html=1;fillColor=#f8cecc;strokeColor=#b85450;" parent="pY1jZxHgJ3CI3KXNFTr0-70" vertex="1">
          <mxGeometry x="40" y="20" width="10" height="40" as="geometry" />
        </mxCell>
        <mxCell id="pY1jZxHgJ3CI3KXNFTr0-76" value="" style="rounded=0;whiteSpace=wrap;html=1;fillColor=#f8cecc;strokeColor=#b85450;" parent="pY1jZxHgJ3CI3KXNFTr0-70" vertex="1">
          <mxGeometry x="50" y="10" width="10" height="60" as="geometry" />
        </mxCell>
        <mxCell id="pY1jZxHgJ3CI3KXNFTr0-77" value="" style="rounded=0;whiteSpace=wrap;html=1;fillColor=#f8cecc;strokeColor=#b85450;" parent="pY1jZxHgJ3CI3KXNFTr0-70" vertex="1">
          <mxGeometry x="60" width="10" height="80" as="geometry" />
        </mxCell>
        <mxCell id="pY1jZxHgJ3CI3KXNFTr0-83" value="" style="group" parent="1" vertex="1" connectable="0">
          <mxGeometry x="2280" y="180" width="70" height="80" as="geometry" />
        </mxCell>
        <mxCell id="pY1jZxHgJ3CI3KXNFTr0-84" value="" style="rounded=0;whiteSpace=wrap;html=1;fillColor=#f8cecc;strokeColor=#b85450;" parent="pY1jZxHgJ3CI3KXNFTr0-83" vertex="1">
          <mxGeometry width="10" height="80" as="geometry" />
        </mxCell>
        <mxCell id="pY1jZxHgJ3CI3KXNFTr0-85" value="" style="rounded=0;whiteSpace=wrap;html=1;fillColor=#f8cecc;strokeColor=#b85450;" parent="pY1jZxHgJ3CI3KXNFTr0-83" vertex="1">
          <mxGeometry x="10" y="10" width="10" height="60" as="geometry" />
        </mxCell>
        <mxCell id="pY1jZxHgJ3CI3KXNFTr0-86" value="" style="rounded=0;whiteSpace=wrap;html=1;fillColor=#f8cecc;strokeColor=#b85450;" parent="pY1jZxHgJ3CI3KXNFTr0-83" vertex="1">
          <mxGeometry x="20" y="20" width="10" height="40" as="geometry" />
        </mxCell>
        <mxCell id="pY1jZxHgJ3CI3KXNFTr0-87" value="" style="rounded=0;whiteSpace=wrap;html=1;fillColor=#f8cecc;strokeColor=#b85450;" parent="pY1jZxHgJ3CI3KXNFTr0-83" vertex="1">
          <mxGeometry x="30" y="30" width="10" height="20" as="geometry" />
        </mxCell>
        <mxCell id="pY1jZxHgJ3CI3KXNFTr0-88" value="" style="rounded=0;whiteSpace=wrap;html=1;fillColor=#f8cecc;strokeColor=#b85450;" parent="pY1jZxHgJ3CI3KXNFTr0-83" vertex="1">
          <mxGeometry x="40" y="20" width="10" height="40" as="geometry" />
        </mxCell>
        <mxCell id="pY1jZxHgJ3CI3KXNFTr0-89" value="" style="rounded=0;whiteSpace=wrap;html=1;fillColor=#f8cecc;strokeColor=#b85450;" parent="pY1jZxHgJ3CI3KXNFTr0-83" vertex="1">
          <mxGeometry x="50" y="10" width="10" height="60" as="geometry" />
        </mxCell>
        <mxCell id="pY1jZxHgJ3CI3KXNFTr0-90" value="" style="rounded=0;whiteSpace=wrap;html=1;fillColor=#f8cecc;strokeColor=#b85450;" parent="pY1jZxHgJ3CI3KXNFTr0-83" vertex="1">
          <mxGeometry x="60" width="10" height="80" as="geometry" />
        </mxCell>
        <mxCell id="pY1jZxHgJ3CI3KXNFTr0-92" value="&#xa;" style="group" parent="1" vertex="1" connectable="0">
          <mxGeometry x="1740" y="180" width="70" height="80" as="geometry" />
        </mxCell>
        <mxCell id="pY1jZxHgJ3CI3KXNFTr0-93" value="" style="rounded=0;whiteSpace=wrap;html=1;fillColor=#f8cecc;strokeColor=#b85450;" parent="pY1jZxHgJ3CI3KXNFTr0-92" vertex="1">
          <mxGeometry width="10" height="80" as="geometry" />
        </mxCell>
        <mxCell id="pY1jZxHgJ3CI3KXNFTr0-94" value="" style="rounded=0;whiteSpace=wrap;html=1;fillColor=#f8cecc;strokeColor=#b85450;" parent="pY1jZxHgJ3CI3KXNFTr0-92" vertex="1">
          <mxGeometry x="10" y="10" width="10" height="60" as="geometry" />
        </mxCell>
        <mxCell id="pY1jZxHgJ3CI3KXNFTr0-95" value="" style="rounded=0;whiteSpace=wrap;html=1;fillColor=#f8cecc;strokeColor=#b85450;" parent="pY1jZxHgJ3CI3KXNFTr0-92" vertex="1">
          <mxGeometry x="20" y="20" width="10" height="40" as="geometry" />
        </mxCell>
        <mxCell id="pY1jZxHgJ3CI3KXNFTr0-96" value="" style="rounded=0;whiteSpace=wrap;html=1;fillColor=#f8cecc;strokeColor=#b85450;" parent="pY1jZxHgJ3CI3KXNFTr0-92" vertex="1">
          <mxGeometry x="30" y="30" width="10" height="20" as="geometry" />
        </mxCell>
        <mxCell id="pY1jZxHgJ3CI3KXNFTr0-97" value="" style="rounded=0;whiteSpace=wrap;html=1;fillColor=#f8cecc;strokeColor=#b85450;" parent="pY1jZxHgJ3CI3KXNFTr0-92" vertex="1">
          <mxGeometry x="40" y="20" width="10" height="40" as="geometry" />
        </mxCell>
        <mxCell id="pY1jZxHgJ3CI3KXNFTr0-98" value="" style="rounded=0;whiteSpace=wrap;html=1;fillColor=#f8cecc;strokeColor=#b85450;" parent="pY1jZxHgJ3CI3KXNFTr0-92" vertex="1">
          <mxGeometry x="50" y="10" width="10" height="60" as="geometry" />
        </mxCell>
        <mxCell id="pY1jZxHgJ3CI3KXNFTr0-99" value="" style="rounded=0;whiteSpace=wrap;html=1;fillColor=#f8cecc;strokeColor=#b85450;" parent="pY1jZxHgJ3CI3KXNFTr0-92" vertex="1">
          <mxGeometry x="60" width="10" height="80" as="geometry" />
        </mxCell>
        <mxCell id="pY1jZxHgJ3CI3KXNFTr0-108" value="&lt;span style=&quot;font-size: 14px;&quot;&gt;$$\mathcal{L}_{T}$$&lt;/span&gt;" style="edgeStyle=orthogonalEdgeStyle;rounded=0;orthogonalLoop=1;jettySize=auto;html=1;startArrow=classic;startFill=1;strokeColor=#FF3333;entryX=1;entryY=0.5;entryDx=0;entryDy=0;" parent="1" source="pY1jZxHgJ3CI3KXNFTr0-109" target="tjQHPkJ3rP1CHwiMBpwy-89" edge="1">
          <mxGeometry relative="1" as="geometry">
            <mxPoint x="1820" y="150" as="targetPoint" />
            <Array as="points" />
          </mxGeometry>
        </mxCell>
        <mxCell id="tjQHPkJ3rP1CHwiMBpwy-108" style="edgeStyle=orthogonalEdgeStyle;rounded=0;orthogonalLoop=1;jettySize=auto;html=1;entryX=0.5;entryY=0;entryDx=0;entryDy=0;" parent="1" source="pY1jZxHgJ3CI3KXNFTr0-109" target="tjQHPkJ3rP1CHwiMBpwy-109" edge="1">
          <mxGeometry relative="1" as="geometry">
            <mxPoint x="1920" y="320" as="targetPoint" />
            <Array as="points">
              <mxPoint x="1860" y="150" />
              <mxPoint x="1860" y="310" />
            </Array>
          </mxGeometry>
        </mxCell>
        <mxCell id="pY1jZxHgJ3CI3KXNFTr0-109" value="$$\hat{\epsilon}_{T}$$" style="text;html=1;align=center;verticalAlign=middle;whiteSpace=wrap;rounded=0;fontSize=18;" parent="1" vertex="1">
          <mxGeometry x="1830" y="140" width="20" height="20" as="geometry" />
        </mxCell>
        <mxCell id="pY1jZxHgJ3CI3KXNFTr0-112" value="&lt;span style=&quot;font-size: 14px;&quot;&gt;$$\mathcal{L}_t$$&lt;/span&gt;" style="edgeStyle=orthogonalEdgeStyle;rounded=0;orthogonalLoop=1;jettySize=auto;html=1;strokeColor=#FF0000;startArrow=classic;startFill=1;entryX=1;entryY=0.5;entryDx=0;entryDy=0;" parent="1" source="pY1jZxHgJ3CI3KXNFTr0-113" target="tjQHPkJ3rP1CHwiMBpwy-99" edge="1">
          <mxGeometry relative="1" as="geometry">
            <mxPoint x="2049.75" y="150" as="targetPoint" />
            <Array as="points" />
          </mxGeometry>
        </mxCell>
        <mxCell id="tjQHPkJ3rP1CHwiMBpwy-121" style="edgeStyle=orthogonalEdgeStyle;rounded=0;orthogonalLoop=1;jettySize=auto;html=1;entryX=0.5;entryY=0;entryDx=0;entryDy=0;" parent="1" source="pY1jZxHgJ3CI3KXNFTr0-113" target="tjQHPkJ3rP1CHwiMBpwy-119" edge="1">
          <mxGeometry relative="1" as="geometry">
            <Array as="points">
              <mxPoint x="2140" y="150" />
            </Array>
          </mxGeometry>
        </mxCell>
        <mxCell id="pY1jZxHgJ3CI3KXNFTr0-113" value="$$\hat{\epsilon}_{t}$$" style="text;html=1;align=center;verticalAlign=middle;whiteSpace=wrap;rounded=0;fontSize=18;" parent="1" vertex="1">
          <mxGeometry x="2109" y="140" width="20" height="20" as="geometry" />
        </mxCell>
        <mxCell id="tjQHPkJ3rP1CHwiMBpwy-126" value="&lt;span style=&quot;font-size: 14px;&quot;&gt;$$\mathcal{L}_{1}$$&lt;/span&gt;" style="edgeStyle=orthogonalEdgeStyle;rounded=0;orthogonalLoop=1;jettySize=auto;html=1;entryX=1;entryY=0.5;entryDx=0;entryDy=0;strokeColor=#FF0000;startArrow=classic;startFill=1;" parent="1" source="pY1jZxHgJ3CI3KXNFTr0-115" target="tjQHPkJ3rP1CHwiMBpwy-87" edge="1">
          <mxGeometry relative="1" as="geometry">
            <mxPoint x="2300" y="150" as="targetPoint" />
          </mxGeometry>
        </mxCell>
        <mxCell id="gGAgZqjvhxtVbVruu96U-13" style="edgeStyle=orthogonalEdgeStyle;rounded=0;orthogonalLoop=1;jettySize=auto;html=1;entryX=0.5;entryY=0;entryDx=0;entryDy=0;" parent="1" source="pY1jZxHgJ3CI3KXNFTr0-115" target="gGAgZqjvhxtVbVruu96U-14" edge="1">
          <mxGeometry relative="1" as="geometry">
            <mxPoint x="2379.74" y="320" as="targetPoint" />
            <Array as="points">
              <mxPoint x="2380" y="240" />
              <mxPoint x="2370" y="240" />
            </Array>
          </mxGeometry>
        </mxCell>
        <mxCell id="pY1jZxHgJ3CI3KXNFTr0-115" value="$$\hat{\epsilon}_{1}$$" style="text;html=1;align=center;verticalAlign=middle;whiteSpace=wrap;rounded=0;fontSize=18;" parent="1" vertex="1">
          <mxGeometry x="2369.74" y="140" width="20" height="20" as="geometry" />
        </mxCell>
        <mxCell id="pY1jZxHgJ3CI3KXNFTr0-118" value="&lt;font style=&quot;font-size: 16px;&quot;&gt;$$q(\mathbf{x}_t \vert \mathbf{x}_{t-1}) = \mathcal{N}(\mathbf{x}_t; \sqrt{\alpha_t} \mathbf{x}_{t-1}, (1 - \alpha_t) \mathbf{I})$$&lt;/font&gt;" style="endArrow=none;html=1;rounded=0;strokeWidth=2;spacingTop=2;spacingLeft=2;spacingBottom=2;spacingRight=2;labelBackgroundColor=default;labelBorderColor=none;startArrow=classic;startFill=1;endFill=0;fillColor=#dae8fc;strokeColor=#6c8ebf;" parent="1" edge="1">
          <mxGeometry x="-0.0008" width="50" height="50" relative="1" as="geometry">
            <mxPoint x="1680" y="50" as="sourcePoint" />
            <mxPoint x="2439.24" y="50" as="targetPoint" />
            <mxPoint as="offset" />
          </mxGeometry>
        </mxCell>
        <mxCell id="pY1jZxHgJ3CI3KXNFTr0-119" value="&lt;font style=&quot;font-size: 16px;&quot;&gt;$$p_\theta(\mathbf{x}_{t-1} \vert \mathbf{x}_t) = \mathcal{N}(\mathbf{x}_{t-1}; \mu_\theta(\mathbf{x}_t, t), \boldsymbol{\Sigma}_\theta(\mathbf{x}_t, t))$$&lt;/font&gt;" style="endArrow=classic;html=1;rounded=0;strokeWidth=2;spacingTop=0;spacingLeft=2;spacingBottom=0;spacingRight=2;startArrow=none;startFill=0;endFill=1;labelBackgroundColor=default;labelBorderColor=none;fillColor=#f8cecc;strokeColor=#b85450;" parent="1" edge="1">
          <mxGeometry x="0.0023" width="50" height="50" relative="1" as="geometry">
            <mxPoint x="1689.24" y="370" as="sourcePoint" />
            <mxPoint x="2439.24" y="370" as="targetPoint" />
            <mxPoint as="offset" />
          </mxGeometry>
        </mxCell>
        <mxCell id="pY1jZxHgJ3CI3KXNFTr0-150" value="$$\hat{\mathbf{x}}_{0}$$" style="ellipse;whiteSpace=wrap;html=1;aspect=fixed;fontSize=18;fillColor=default;" parent="1" vertex="1">
          <mxGeometry x="2399.24" y="300" width="40" height="40" as="geometry" />
        </mxCell>
        <mxCell id="pY1jZxHgJ3CI3KXNFTr0-276" value="$$f_{\theta}(\mathbf{x}_T, T)$$" style="text;html=1;align=center;verticalAlign=middle;whiteSpace=wrap;rounded=0;fontSize=14;" parent="1" vertex="1">
          <mxGeometry x="1740" y="260" width="70" height="30" as="geometry" />
        </mxCell>
        <mxCell id="pY1jZxHgJ3CI3KXNFTr0-277" value="$$f_{\theta}(\mathbf{x}_{t}, t)$$" style="text;html=1;align=center;verticalAlign=middle;whiteSpace=wrap;rounded=0;fontSize=14;" parent="1" vertex="1">
          <mxGeometry x="2020" y="260" width="70" height="30" as="geometry" />
        </mxCell>
        <mxCell id="pY1jZxHgJ3CI3KXNFTr0-278" value="$$f_{\theta} (\mathbf{x}_{1}, 1)$$" style="text;html=1;align=center;verticalAlign=middle;whiteSpace=wrap;rounded=0;fontSize=14;" parent="1" vertex="1">
          <mxGeometry x="2285" y="260" width="60" height="30" as="geometry" />
        </mxCell>
        <mxCell id="pY1jZxHgJ3CI3KXNFTr0-280" style="edgeStyle=orthogonalEdgeStyle;rounded=0;orthogonalLoop=1;jettySize=auto;html=1;entryX=0;entryY=0.25;entryDx=0;entryDy=0;" parent="1" source="pY1jZxHgJ3CI3KXNFTr0-279" target="pY1jZxHgJ3CI3KXNFTr0-93" edge="1">
          <mxGeometry relative="1" as="geometry" />
        </mxCell>
        <mxCell id="pY1jZxHgJ3CI3KXNFTr0-279" value="$$T$$" style="text;html=1;align=center;verticalAlign=middle;whiteSpace=wrap;rounded=0;fontSize=14;" parent="1" vertex="1">
          <mxGeometry x="1700" y="185" width="20" height="30" as="geometry" />
        </mxCell>
        <mxCell id="pY1jZxHgJ3CI3KXNFTr0-299" style="edgeStyle=orthogonalEdgeStyle;rounded=0;orthogonalLoop=1;jettySize=auto;html=1;entryX=0;entryY=0.25;entryDx=0;entryDy=0;" parent="1" source="pY1jZxHgJ3CI3KXNFTr0-281" target="pY1jZxHgJ3CI3KXNFTr0-71" edge="1">
          <mxGeometry relative="1" as="geometry" />
        </mxCell>
        <mxCell id="pY1jZxHgJ3CI3KXNFTr0-281" value="$$t$$" style="text;html=1;align=center;verticalAlign=middle;whiteSpace=wrap;rounded=0;fontSize=14;" parent="1" vertex="1">
          <mxGeometry x="1980" y="185" width="20" height="30" as="geometry" />
        </mxCell>
        <mxCell id="pY1jZxHgJ3CI3KXNFTr0-310" style="edgeStyle=orthogonalEdgeStyle;rounded=0;orthogonalLoop=1;jettySize=auto;html=1;entryX=0;entryY=0.25;entryDx=0;entryDy=0;" parent="1" source="pY1jZxHgJ3CI3KXNFTr0-284" target="pY1jZxHgJ3CI3KXNFTr0-84" edge="1">
          <mxGeometry relative="1" as="geometry" />
        </mxCell>
        <mxCell id="pY1jZxHgJ3CI3KXNFTr0-284" value="$$1$$" style="text;html=1;align=center;verticalAlign=middle;whiteSpace=wrap;rounded=0;fontSize=14;" parent="1" vertex="1">
          <mxGeometry x="2240" y="185" width="20" height="30" as="geometry" />
        </mxCell>
        <mxCell id="pY1jZxHgJ3CI3KXNFTr0-289" style="edgeStyle=orthogonalEdgeStyle;rounded=0;orthogonalLoop=1;jettySize=auto;html=1;entryX=0.5;entryY=1;entryDx=0;entryDy=0;" parent="1" source="pY1jZxHgJ3CI3KXNFTr0-77" target="pY1jZxHgJ3CI3KXNFTr0-113" edge="1">
          <mxGeometry relative="1" as="geometry" />
        </mxCell>
        <mxCell id="tjQHPkJ3rP1CHwiMBpwy-102" style="edgeStyle=orthogonalEdgeStyle;rounded=0;orthogonalLoop=1;jettySize=auto;html=1;entryX=0;entryY=0.75;entryDx=0;entryDy=0;" parent="1" source="tjQHPkJ3rP1CHwiMBpwy-76" target="pY1jZxHgJ3CI3KXNFTr0-93" edge="1">
          <mxGeometry relative="1" as="geometry">
            <Array as="points">
              <mxPoint x="1700" y="240" />
            </Array>
          </mxGeometry>
        </mxCell>
        <mxCell id="tjQHPkJ3rP1CHwiMBpwy-76" value="$$\mathbf{x}_{T}$$" style="ellipse;whiteSpace=wrap;html=1;aspect=fixed;fontSize=18;fillColor=default;" parent="1" vertex="1">
          <mxGeometry x="1680" y="80" width="40" height="40" as="geometry" />
        </mxCell>
        <mxCell id="tjQHPkJ3rP1CHwiMBpwy-83" value="" style="edgeStyle=orthogonalEdgeStyle;rounded=0;orthogonalLoop=1;jettySize=auto;html=1;entryX=1;entryY=0.5;entryDx=0;entryDy=0;fillColor=#dae8fc;strokeColor=#6c8ebf;" parent="1" source="tjQHPkJ3rP1CHwiMBpwy-92" target="tjQHPkJ3rP1CHwiMBpwy-76" edge="1">
          <mxGeometry relative="1" as="geometry" />
        </mxCell>
        <mxCell id="tjQHPkJ3rP1CHwiMBpwy-112" style="edgeStyle=orthogonalEdgeStyle;rounded=0;orthogonalLoop=1;jettySize=auto;html=1;entryX=0;entryY=0.75;entryDx=0;entryDy=0;exitX=0.5;exitY=0;exitDx=0;exitDy=0;" parent="1" source="gGAgZqjvhxtVbVruu96U-7" target="pY1jZxHgJ3CI3KXNFTr0-71" edge="1">
          <mxGeometry relative="1" as="geometry">
            <Array as="points">
              <mxPoint x="1980" y="240" />
            </Array>
          </mxGeometry>
        </mxCell>
        <mxCell id="tjQHPkJ3rP1CHwiMBpwy-118" style="edgeStyle=orthogonalEdgeStyle;rounded=0;orthogonalLoop=1;jettySize=auto;html=1;entryX=0;entryY=0.5;entryDx=0;entryDy=0;fillColor=#f8cecc;strokeColor=#b85450;" parent="1" source="tjQHPkJ3rP1CHwiMBpwy-119" target="tjQHPkJ3rP1CHwiMBpwy-117" edge="1">
          <mxGeometry relative="1" as="geometry">
            <Array as="points">
              <mxPoint x="2000" y="320" />
            </Array>
          </mxGeometry>
        </mxCell>
        <mxCell id="tjQHPkJ3rP1CHwiMBpwy-77" value="$$\mathbf{x}_{t}$$" style="ellipse;whiteSpace=wrap;html=1;aspect=fixed;fontSize=18;fillColor=default;" parent="1" vertex="1">
          <mxGeometry x="1960" y="80" width="40" height="40" as="geometry" />
        </mxCell>
        <mxCell id="tjQHPkJ3rP1CHwiMBpwy-82" style="edgeStyle=orthogonalEdgeStyle;rounded=0;orthogonalLoop=1;jettySize=auto;html=1;entryX=1;entryY=0.5;entryDx=0;entryDy=0;fillColor=#dae8fc;strokeColor=#6c8ebf;" parent="1" source="tjQHPkJ3rP1CHwiMBpwy-78" target="tjQHPkJ3rP1CHwiMBpwy-77" edge="1">
          <mxGeometry relative="1" as="geometry" />
        </mxCell>
        <mxCell id="tjQHPkJ3rP1CHwiMBpwy-78" value="$$\mathbf{x}_{t-1}$$" style="ellipse;whiteSpace=wrap;html=1;aspect=fixed;fontSize=16;fillColor=default;" parent="1" vertex="1">
          <mxGeometry x="2059" y="80" width="40" height="40" as="geometry" />
        </mxCell>
        <mxCell id="tjQHPkJ3rP1CHwiMBpwy-81" value="&lt;span style=&quot;text-wrap: wrap; background-color: rgb(251, 251, 251);&quot;&gt;&lt;font style=&quot;font-size: 14px;&quot;&gt;$$...$$&lt;/font&gt;&lt;/span&gt;" style="edgeStyle=orthogonalEdgeStyle;rounded=0;orthogonalLoop=1;jettySize=auto;html=1;entryX=1;entryY=0.5;entryDx=0;entryDy=0;fillColor=#dae8fc;strokeColor=#6c8ebf;" parent="1" source="tjQHPkJ3rP1CHwiMBpwy-84" target="tjQHPkJ3rP1CHwiMBpwy-78" edge="1">
          <mxGeometry relative="1" as="geometry" />
        </mxCell>
        <mxCell id="tjQHPkJ3rP1CHwiMBpwy-124" value="" style="edgeStyle=orthogonalEdgeStyle;rounded=0;orthogonalLoop=1;jettySize=auto;html=1;" parent="1" source="tjQHPkJ3rP1CHwiMBpwy-79" target="tjQHPkJ3rP1CHwiMBpwy-84" edge="1">
          <mxGeometry relative="1" as="geometry" />
        </mxCell>
        <mxCell id="tjQHPkJ3rP1CHwiMBpwy-79" value="$$\mathbf{x}_{0}$$" style="ellipse;whiteSpace=wrap;html=1;aspect=fixed;fontSize=18;fillColor=default;" parent="1" vertex="1">
          <mxGeometry x="2400" y="80" width="40" height="40" as="geometry" />
        </mxCell>
        <mxCell id="tjQHPkJ3rP1CHwiMBpwy-85" value="" style="edgeStyle=orthogonalEdgeStyle;rounded=0;orthogonalLoop=1;jettySize=auto;html=1;entryX=1;entryY=0.5;entryDx=0;entryDy=0;fillColor=#dae8fc;strokeColor=#6c8ebf;" parent="1" source="tjQHPkJ3rP1CHwiMBpwy-86" target="tjQHPkJ3rP1CHwiMBpwy-84" edge="1">
          <mxGeometry relative="1" as="geometry">
            <mxPoint x="2340" y="100" as="sourcePoint" />
            <mxPoint x="2139" y="100" as="targetPoint" />
          </mxGeometry>
        </mxCell>
        <mxCell id="tjQHPkJ3rP1CHwiMBpwy-128" style="edgeStyle=orthogonalEdgeStyle;rounded=0;orthogonalLoop=1;jettySize=auto;html=1;entryX=0;entryY=0.5;entryDx=0;entryDy=0;fillColor=#f8cecc;strokeColor=#b85450;" parent="1" source="gGAgZqjvhxtVbVruu96U-11" target="gGAgZqjvhxtVbVruu96U-14" edge="1">
          <mxGeometry relative="1" as="geometry">
            <Array as="points" />
          </mxGeometry>
        </mxCell>
        <mxCell id="tjQHPkJ3rP1CHwiMBpwy-129" style="edgeStyle=orthogonalEdgeStyle;rounded=0;orthogonalLoop=1;jettySize=auto;html=1;entryX=0;entryY=0.75;entryDx=0;entryDy=0;exitX=0.5;exitY=0;exitDx=0;exitDy=0;" parent="1" source="gGAgZqjvhxtVbVruu96U-11" target="pY1jZxHgJ3CI3KXNFTr0-84" edge="1">
          <mxGeometry relative="1" as="geometry">
            <Array as="points">
              <mxPoint x="2260" y="240" />
            </Array>
          </mxGeometry>
        </mxCell>
        <mxCell id="tjQHPkJ3rP1CHwiMBpwy-84" value="$$\mathbf{x}_{1}$$" style="ellipse;whiteSpace=wrap;html=1;aspect=fixed;fontSize=18;fillColor=default;" parent="1" vertex="1">
          <mxGeometry x="2240" y="80" width="40" height="40" as="geometry" />
        </mxCell>
        <mxCell id="tjQHPkJ3rP1CHwiMBpwy-88" style="edgeStyle=orthogonalEdgeStyle;rounded=0;orthogonalLoop=1;jettySize=auto;html=1;entryX=0.5;entryY=1;entryDx=0;entryDy=0;" parent="1" source="tjQHPkJ3rP1CHwiMBpwy-87" target="tjQHPkJ3rP1CHwiMBpwy-86" edge="1">
          <mxGeometry relative="1" as="geometry" />
        </mxCell>
        <mxCell id="tjQHPkJ3rP1CHwiMBpwy-87" value="$$\epsilon_{1}$$" style="text;html=1;align=center;verticalAlign=middle;whiteSpace=wrap;rounded=0;fontSize=18;rotation=0;spacingTop=0;spacingRight=0;" parent="1" vertex="1">
          <mxGeometry x="2300" y="140" width="20" height="20" as="geometry" />
        </mxCell>
        <mxCell id="tjQHPkJ3rP1CHwiMBpwy-96" style="edgeStyle=orthogonalEdgeStyle;rounded=0;orthogonalLoop=1;jettySize=auto;html=1;entryX=0.5;entryY=1;entryDx=0;entryDy=0;" parent="1" source="tjQHPkJ3rP1CHwiMBpwy-89" target="tjQHPkJ3rP1CHwiMBpwy-92" edge="1">
          <mxGeometry relative="1" as="geometry" />
        </mxCell>
        <mxCell id="tjQHPkJ3rP1CHwiMBpwy-89" value="$$\epsilon_{T}$$" style="text;html=1;align=center;verticalAlign=middle;whiteSpace=wrap;rounded=0;fontSize=18;rotation=0;spacingTop=0;spacingRight=8;" parent="1" vertex="1">
          <mxGeometry x="1735" y="140" width="30" height="20" as="geometry" />
        </mxCell>
        <mxCell id="tjQHPkJ3rP1CHwiMBpwy-91" value="&lt;span style=&quot;text-wrap: wrap; background-color: rgb(251, 251, 251);&quot;&gt;&lt;font style=&quot;font-size: 14px;&quot;&gt;$$...$$&lt;/font&gt;&lt;/span&gt;" style="edgeStyle=orthogonalEdgeStyle;rounded=0;orthogonalLoop=1;jettySize=auto;html=1;entryX=1;entryY=0.5;entryDx=0;entryDy=0;fillColor=#dae8fc;strokeColor=#6c8ebf;" parent="1" source="tjQHPkJ3rP1CHwiMBpwy-77" target="tjQHPkJ3rP1CHwiMBpwy-90" edge="1">
          <mxGeometry relative="1" as="geometry">
            <mxPoint x="1920" y="100" as="sourcePoint" />
            <mxPoint x="1720" y="100" as="targetPoint" />
          </mxGeometry>
        </mxCell>
        <mxCell id="tjQHPkJ3rP1CHwiMBpwy-90" value="$$\mathbf{x}_{T-1}$$" style="ellipse;whiteSpace=wrap;html=1;aspect=fixed;fontSize=14;fillColor=default;" parent="1" vertex="1">
          <mxGeometry x="1780" y="80" width="40" height="40" as="geometry" />
        </mxCell>
        <mxCell id="tjQHPkJ3rP1CHwiMBpwy-93" value="" style="edgeStyle=orthogonalEdgeStyle;rounded=0;orthogonalLoop=1;jettySize=auto;html=1;entryX=1;entryY=0.5;entryDx=0;entryDy=0;fillColor=#dae8fc;strokeColor=#6c8ebf;" parent="1" source="tjQHPkJ3rP1CHwiMBpwy-90" target="tjQHPkJ3rP1CHwiMBpwy-92" edge="1">
          <mxGeometry relative="1" as="geometry">
            <mxPoint x="1780" y="100" as="sourcePoint" />
            <mxPoint x="1720" y="100" as="targetPoint" />
          </mxGeometry>
        </mxCell>
        <mxCell id="tjQHPkJ3rP1CHwiMBpwy-92" value="+" style="ellipse;whiteSpace=wrap;html=1;spacingTop=-2;" parent="1" vertex="1">
          <mxGeometry x="1740" y="90" width="20" height="20" as="geometry" />
        </mxCell>
        <mxCell id="tjQHPkJ3rP1CHwiMBpwy-97" value="+" style="ellipse;whiteSpace=wrap;html=1;spacingTop=-2;" parent="1" vertex="1">
          <mxGeometry x="2019.62" y="90" width="20" height="20" as="geometry" />
        </mxCell>
        <mxCell id="tjQHPkJ3rP1CHwiMBpwy-98" style="edgeStyle=orthogonalEdgeStyle;rounded=0;orthogonalLoop=1;jettySize=auto;html=1;entryX=0.5;entryY=1;entryDx=0;entryDy=0;" parent="1" target="tjQHPkJ3rP1CHwiMBpwy-97" edge="1">
          <mxGeometry relative="1" as="geometry">
            <mxPoint x="2029.62" y="140" as="sourcePoint" />
          </mxGeometry>
        </mxCell>
        <mxCell id="tjQHPkJ3rP1CHwiMBpwy-99" value="$$\epsilon_{t}$$" style="text;html=1;align=center;verticalAlign=middle;whiteSpace=wrap;rounded=0;fontSize=18;rotation=0;spacingTop=0;spacingRight=0;" parent="1" vertex="1">
          <mxGeometry x="2014.75" y="140" width="29.75" height="20" as="geometry" />
        </mxCell>
        <mxCell id="tjQHPkJ3rP1CHwiMBpwy-101" style="edgeStyle=orthogonalEdgeStyle;rounded=0;orthogonalLoop=1;jettySize=auto;html=1;entryX=0.5;entryY=1;entryDx=0;entryDy=0;" parent="1" source="pY1jZxHgJ3CI3KXNFTr0-99" target="pY1jZxHgJ3CI3KXNFTr0-109" edge="1">
          <mxGeometry relative="1" as="geometry" />
        </mxCell>
        <mxCell id="gGAgZqjvhxtVbVruu96U-3" style="edgeStyle=orthogonalEdgeStyle;rounded=0;orthogonalLoop=1;jettySize=auto;html=1;entryX=0.5;entryY=1;entryDx=0;entryDy=0;" parent="1" source="tjQHPkJ3rP1CHwiMBpwy-106" target="gGAgZqjvhxtVbVruu96U-2" edge="1">
          <mxGeometry relative="1" as="geometry" />
        </mxCell>
        <mxCell id="tjQHPkJ3rP1CHwiMBpwy-106" value="$$\hat{\mathbf{x}}_{T-1}$$" style="ellipse;whiteSpace=wrap;html=1;aspect=fixed;fontSize=14;fillColor=default;" parent="1" vertex="1">
          <mxGeometry x="1890" y="300" width="40" height="40" as="geometry" />
        </mxCell>
        <mxCell id="tjQHPkJ3rP1CHwiMBpwy-110" value="" style="edgeStyle=orthogonalEdgeStyle;rounded=0;orthogonalLoop=1;jettySize=auto;html=1;entryX=0;entryY=0.5;entryDx=0;entryDy=0;fillColor=#f8cecc;strokeColor=#b85450;" parent="1" source="gGAgZqjvhxtVbVruu96U-4" target="tjQHPkJ3rP1CHwiMBpwy-109" edge="1">
          <mxGeometry relative="1" as="geometry">
            <mxPoint x="1700" y="120" as="sourcePoint" />
            <mxPoint x="1950" y="320" as="targetPoint" />
            <Array as="points">
              <mxPoint x="1690" y="320" />
            </Array>
          </mxGeometry>
        </mxCell>
        <mxCell id="tjQHPkJ3rP1CHwiMBpwy-111" style="edgeStyle=orthogonalEdgeStyle;rounded=0;orthogonalLoop=1;jettySize=auto;html=1;entryX=0;entryY=0.5;entryDx=0;entryDy=0;fillColor=#f8cecc;strokeColor=#b85450;" parent="1" source="tjQHPkJ3rP1CHwiMBpwy-109" target="tjQHPkJ3rP1CHwiMBpwy-106" edge="1">
          <mxGeometry relative="1" as="geometry" />
        </mxCell>
        <mxCell id="tjQHPkJ3rP1CHwiMBpwy-109" value="-" style="ellipse;whiteSpace=wrap;html=1;spacingTop=-2;" parent="1" vertex="1">
          <mxGeometry x="1850" y="310" width="20" height="20" as="geometry" />
        </mxCell>
        <mxCell id="gGAgZqjvhxtVbVruu96U-10" style="edgeStyle=orthogonalEdgeStyle;rounded=0;orthogonalLoop=1;jettySize=auto;html=1;entryX=0.5;entryY=1;entryDx=0;entryDy=0;" parent="1" source="tjQHPkJ3rP1CHwiMBpwy-117" target="gGAgZqjvhxtVbVruu96U-6" edge="1">
          <mxGeometry relative="1" as="geometry" />
        </mxCell>
        <mxCell id="tjQHPkJ3rP1CHwiMBpwy-117" value="$$\hat{\mathbf{x}}_{t-1}$$" style="ellipse;whiteSpace=wrap;html=1;aspect=fixed;fontSize=16;fillColor=default;" parent="1" vertex="1">
          <mxGeometry x="2170" y="300" width="40" height="40" as="geometry" />
        </mxCell>
        <mxCell id="tjQHPkJ3rP1CHwiMBpwy-120" value="" style="edgeStyle=orthogonalEdgeStyle;rounded=0;orthogonalLoop=1;jettySize=auto;html=1;entryX=0;entryY=0.5;entryDx=0;entryDy=0;fillColor=#f8cecc;strokeColor=#b85450;" parent="1" source="gGAgZqjvhxtVbVruu96U-7" target="tjQHPkJ3rP1CHwiMBpwy-119" edge="1">
          <mxGeometry relative="1" as="geometry">
            <mxPoint x="1979.75" y="120" as="sourcePoint" />
            <mxPoint x="2169.75" y="320" as="targetPoint" />
            <Array as="points">
              <mxPoint x="1970" y="320" />
            </Array>
          </mxGeometry>
        </mxCell>
        <mxCell id="tjQHPkJ3rP1CHwiMBpwy-119" value="-" style="ellipse;whiteSpace=wrap;html=1;spacingTop=-2;" parent="1" vertex="1">
          <mxGeometry x="2130" y="310" width="20" height="20" as="geometry" />
        </mxCell>
        <mxCell id="tjQHPkJ3rP1CHwiMBpwy-125" value="" style="edgeStyle=orthogonalEdgeStyle;rounded=0;orthogonalLoop=1;jettySize=auto;html=1;entryX=1;entryY=0.5;entryDx=0;entryDy=0;fillColor=#dae8fc;strokeColor=#6c8ebf;" parent="1" source="tjQHPkJ3rP1CHwiMBpwy-79" target="tjQHPkJ3rP1CHwiMBpwy-86" edge="1">
          <mxGeometry relative="1" as="geometry">
            <mxPoint x="2340" y="100" as="sourcePoint" />
            <mxPoint x="2280" y="100" as="targetPoint" />
          </mxGeometry>
        </mxCell>
        <mxCell id="tjQHPkJ3rP1CHwiMBpwy-86" value="+" style="ellipse;whiteSpace=wrap;html=1;spacingTop=-2;" parent="1" vertex="1">
          <mxGeometry x="2300" y="90" width="20" height="20" as="geometry" />
        </mxCell>
        <mxCell id="gGAgZqjvhxtVbVruu96U-9" style="edgeStyle=orthogonalEdgeStyle;rounded=0;orthogonalLoop=1;jettySize=auto;html=1;entryX=0;entryY=0.5;entryDx=0;entryDy=0;" parent="1" source="gGAgZqjvhxtVbVruu96U-2" target="gGAgZqjvhxtVbVruu96U-7" edge="1">
          <mxGeometry relative="1" as="geometry">
            <Array as="points">
              <mxPoint x="1940" y="194" />
              <mxPoint x="1940" y="320" />
            </Array>
          </mxGeometry>
        </mxCell>
        <mxCell id="gGAgZqjvhxtVbVruu96U-2" value="&lt;span style=&quot;font-size: 14px;&quot;&gt;$$...$$&lt;/span&gt;" style="rounded=0;whiteSpace=wrap;html=1;spacingTop=-6;" parent="1" vertex="1">
          <mxGeometry x="1895" y="179" width="30" height="29" as="geometry" />
        </mxCell>
        <mxCell id="gGAgZqjvhxtVbVruu96U-5" value="" style="edgeStyle=orthogonalEdgeStyle;rounded=0;orthogonalLoop=1;jettySize=auto;html=1;entryX=0;entryY=0;entryDx=0;entryDy=0;" parent="1" source="tjQHPkJ3rP1CHwiMBpwy-76" target="gGAgZqjvhxtVbVruu96U-4" edge="1">
          <mxGeometry relative="1" as="geometry">
            <mxPoint x="1690" y="117" as="sourcePoint" />
            <mxPoint x="1850" y="320" as="targetPoint" />
            <Array as="points">
              <mxPoint x="1686" y="170" />
              <mxPoint x="1686" y="170" />
            </Array>
          </mxGeometry>
        </mxCell>
        <mxCell id="gGAgZqjvhxtVbVruu96U-4" value="$$\hat{\mathbf{x}}_{T}$$" style="ellipse;whiteSpace=wrap;html=1;aspect=fixed;fontSize=18;fillColor=default;" parent="1" vertex="1">
          <mxGeometry x="1680" y="300" width="40" height="40" as="geometry" />
        </mxCell>
        <mxCell id="gGAgZqjvhxtVbVruu96U-6" value="&lt;span style=&quot;font-size: 14px;&quot;&gt;$$...$$&lt;/span&gt;" style="rounded=0;whiteSpace=wrap;html=1;spacingTop=-6;" parent="1" vertex="1">
          <mxGeometry x="2175" y="179" width="30" height="29" as="geometry" />
        </mxCell>
        <mxCell id="gGAgZqjvhxtVbVruu96U-7" value="$$\hat{\mathbf{x}}_{t}$$" style="ellipse;whiteSpace=wrap;html=1;aspect=fixed;fontSize=18;fillColor=default;" parent="1" vertex="1">
          <mxGeometry x="1960" y="300" width="40" height="40" as="geometry" />
        </mxCell>
        <mxCell id="gGAgZqjvhxtVbVruu96U-12" value="" style="edgeStyle=orthogonalEdgeStyle;rounded=0;orthogonalLoop=1;jettySize=auto;html=1;entryX=0;entryY=0.5;entryDx=0;entryDy=0;exitX=1;exitY=0.5;exitDx=0;exitDy=0;" parent="1" source="gGAgZqjvhxtVbVruu96U-6" target="gGAgZqjvhxtVbVruu96U-11" edge="1">
          <mxGeometry relative="1" as="geometry">
            <Array as="points">
              <mxPoint x="2220" y="194" />
              <mxPoint x="2220" y="320" />
            </Array>
            <mxPoint x="2250" y="117" as="sourcePoint" />
            <mxPoint x="2399" y="320" as="targetPoint" />
          </mxGeometry>
        </mxCell>
        <mxCell id="gGAgZqjvhxtVbVruu96U-11" value="$$\mathbf{x}_{1}$$" style="ellipse;whiteSpace=wrap;html=1;aspect=fixed;fontSize=18;fillColor=default;" parent="1" vertex="1">
          <mxGeometry x="2240" y="300" width="40" height="40" as="geometry" />
        </mxCell>
        <mxCell id="gGAgZqjvhxtVbVruu96U-16" style="edgeStyle=orthogonalEdgeStyle;rounded=0;orthogonalLoop=1;jettySize=auto;html=1;entryX=0;entryY=0.5;entryDx=0;entryDy=0;fillColor=#f8cecc;strokeColor=#b85450;" parent="1" source="gGAgZqjvhxtVbVruu96U-14" target="pY1jZxHgJ3CI3KXNFTr0-150" edge="1">
          <mxGeometry relative="1" as="geometry" />
        </mxCell>
        <mxCell id="gGAgZqjvhxtVbVruu96U-14" value="-" style="ellipse;whiteSpace=wrap;html=1;spacingTop=-2;" parent="1" vertex="1">
          <mxGeometry x="2360" y="310" width="20" height="20" as="geometry" />
        </mxCell>
        <mxCell id="gGAgZqjvhxtVbVruu96U-17" style="edgeStyle=orthogonalEdgeStyle;rounded=0;orthogonalLoop=1;jettySize=auto;html=1;entryX=0.5;entryY=1;entryDx=0;entryDy=0;" parent="1" source="pY1jZxHgJ3CI3KXNFTr0-90" target="pY1jZxHgJ3CI3KXNFTr0-115" edge="1">
          <mxGeometry relative="1" as="geometry" />
        </mxCell>
      </root>
    </mxGraphModel>
  </diagram>
</mxfile>
